#!OML:ASF E:/inclinewalkrobotboard/Project1/Captureday1/Session1/subject1.ASF
:FULLY-SPECIFIED
:DEGREES
388
root 0 0 0 -2.2180045775163713 -4.74761704470569 -5.530686960906257
lowerback 10.460773675458492 1.7990693269317775 4.395358191069472
upperback 0.5409451428194401 2.9909404162299174 1.6368157818721287
thorax -5.1758325617329675 1.3928570449908726 -1.1698675060451156
lowerneck -16.76664562126293 -3.1834241528893767 -1.7314449024929193
upperneck 19.089688249821233 -4.103152252887065 0.7318727176203366
head 8.813262542931131 -1.97092362954859 0.015629628254773653
rclavicle -4.451669765030035E-16 -3.2416531987283863E-16
rhumerus -29.334485398301247 -18.25031658515858 -78.11088544731224
rradius 26.444693616479274
rwrist 4.331672044986743
rhand -17.63933894725251 22.673616042784854
rfingers 7.125020000000027
rthumb 8.609331624265767 -7.147406476658908
lclavicle -6.440203588112565E-16 -1.8472370299495933E-16
lhumerus -30.257705014544044 -1.5397110055511156 82.27792800500151
lradius 32.399906616689144
lwrist 5.677404477219689
lhand -25.603804744219005 23.895365077211864
lfingers 7.12398338189286
lthumb 0.9183280323367491 53.52121789877101
rfemur -11.915781883116358 3.921509311687827 26.51007026857016
rtibia 46.41338728609667
rfoot -4.824279754389174 -5.041140035486058
rtoes 6.626405944371059
lfemur -1.905076792250929 -3.5802411398202283 -23.73354975542008
ltibia 18.764104751295886
lfoot -15.551460468428498 2.4806742895474025
ltoes -2.869758261009976
389
root 0 0 0 -2.229497641040215 -4.623455523092041 -5.423259957831885
lowerback 10.462447872634163 1.7457175861939453 4.274899696511354
upperback 0.5353719600315223 2.9070339300915538 1.643237442622238
thorax -5.183246237482008 1.3546897653121082 -1.0847831290841994
lowerneck -16.799812273257466 -3.1717498087210614 -1.7272503704250237
upperneck 19.12160763323636 -4.081218417937117 0.7051096255235292
head 8.826818948859799 -1.9624845638607404 0.007808425682935383
rclavicle -4.297675337995536E-16 -3.285244550452834E-16
rhumerus -29.517476617332647 -18.428048164122742 -78.14379512314314
rradius 26.27532151862659
rwrist 4.296986246654701
rhand -17.610846172190083 22.806164615898524
rfingers 7.1250200000000286
rthumb 8.636368883443646 -7.017325075381692
lclavicle -6.381478453918871E-16 -1.8709624137472444E-16
lhumerus -30.33244297014456 -1.4576664935665207 82.283386888607
lradius 32.239151301426446
lwrist 5.660636590972176
lhand -25.65176583090706 23.865938325372678
lfingers 7.1240206737711995
lthumb 0.8721534800525905 53.508295114297084
rfemur -14.931065020851868 2.8755399230532515 24.9611248713832
rtibia 51.87351262002473
rfoot -2.127363511223189 -4.9129136318904285
rtoes 7.648392514112804
lfemur -0.24581936334818266 -3.6086010634740844 -24.560040644780404
ltibia 18.08050039152713
lfoot -16.029330584014204 2.2349738668275023
ltoes -3.015729500170165
390
root 0 0 0 -2.244021875593924 -4.425027686743112 -5.270511899340433
lowerback 10.466290791509687 1.6662939534311914 4.104015298238393
upperback 0.5248755857606828 2.7830730005699515 1.6560973317135792
thorax -5.197002188982279 1.298275268590064 -0.958883145763673
lowerneck -16.860353202556947 -3.1547819330094105 -1.7163032356829762
upperneck 19.17746629024837 -4.049068610384038 0.6588642360232395
head 8.851802459712363 -1.949715337185547 -0.0069936389315228276
rclavicle -4.135901069445353E-16 -3.3422295847382857E-16
rhumerus -29.74183552624653 -18.641616699461593 -78.18656285942443
rradius 26.06820302497173
rwrist 4.254080073447204
rhand -17.574705496566565 22.968395826808557
rfingers 7.125020000000031
rthumb 8.669990091109593 -6.858111112419792
lclavicle -6.348256697247494E-16 -1.91146630725463E-16
lhumerus -30.416546974288536 -1.3718740305611092 82.29138113940515
lradius 32.0646876733884
lwrist 5.64358064766812
lhand -25.702040037399037 23.83460595588287
lfingers 7.124045603620418
lthumb 0.8231418499948777 53.49374147506596
rfemur -17.45098939850798 2.143148924926896 23.61367905836609
rtibia 55.83085472424344
rfoot -0.19077935201180019 -4.934172318384391
rtoes 8.235056113812202
lfemur 0.9974910461014073 -3.5439907902707466 -25.12953375577437
ltibia 18.210881538794382
lfoot -16.04115281344181 1.7301538409066302
ltoes -3.23725514834244
391
root 0 0 0 -2.2631755521627492 -4.144019098806961 -5.052571001635025
lowerback 10.470878200384977 1.5523798266316569 3.8607911049717067
upperback 0.5106323825346686 2.6053304648928743 1.6745055862523155
thorax -5.215277092840726 1.217266081282988 -0.7788167328275032
lowerneck -16.942684447050944 -3.130570201337901 -1.702330331208727
upperneck 19.25477010404279 -4.0040713257795 0.5956366672582307
head 8.886731488059626 -1.931465454631944 -0.02697334131561746
rclavicle -3.9822704836466186E-16 -3.4074878196651515E-16
rhumerus -29.97780630441372 -18.863051353374566 -78.23316099687521
rradius 25.850713717443682
rwrist 4.208423832779257
rhand -17.535904562541106 23.138815085977214
rfingers 7.125020000000033
rthumb 8.705689236934806 -6.690983353059128
lclavicle -6.330048442379453E-16 -1.944576589123621E-16
lhumerus -30.486955900838495 -1.3022577912003008 82.29878820232842
lradius 31.920356632782166
lwrist 5.630502914260676
lhand -25.742720653348794 23.809783901353853
lfingers 7.124062940716531
lthumb 0.7831632476174608 53.48199422790617
rfemur -19.006529796039576 1.843241834158726 22.728850813605302
rtibia 57.56382665175642
rfoot 0.6531641632704268 -5.087644725674952
rtoes 8.288568404204987
lfemur 2.029446666974062 -3.4726572138739407 -25.58504208204637
ltibia 18.46351964727034
lfoot -15.982305814087088 1.2470249311294825
ltoes -3.461124271313624
392
root 0 0 0 -2.2871242662442026 -3.787655186397201 -4.770010247343203
lowerback 10.475245759142258 1.4049252776976409 3.5458855312482376
upperback 0.4938974422800988 2.3751307795751844 1.6973197607657315
thorax -5.236626016640901 1.1122508130608204 -0.5463473394632234
lowerneck -17.040931803099845 -3.0988062767318496 -1.6873545042353388
upperneck 19.34820499002051 -3.946263099987217 0.518669531082649
head 8.929426293703395 -1.9077329930639064 -0.050668184192737886
rclavicle -3.844186254784529E-16 -3.476573602305305E-16
rhumerus -30.19200334111398 -19.061884554792947 -78.27595745195093
rradius 25.65418858164988
rwrist 4.166756834032803
rhand -17.5004045258002 23.292869778855692
rfingers 7.125020000000036
rthumb 8.738219103516897 -6.540008208575205
lclavicle -6.318465861017387E-16 -1.9695640691126384E-16
lhumerus -30.53434913787862 -1.2552733384397108 82.30386564381394
lradius 31.822784956318507
lwrist 5.622408335356568
lhand -25.769685996061032 23.793865827686865
lfingers 7.124078962381896
lthumb 0.7567498036199822 53.474362799845416
rfemur -19.830720158976213 1.8050560593756968 22.22702642644362
rtibia 57.86100438052333
rfoot 0.8140314995879692 -5.282460651734995
rtoes 8.059003342392767
lfemur 2.8307002500252825 -3.420474389587084 -25.93301221708068
ltibia 18.64480991453159
lfoot -15.959774118169186 0.8933437565564741
ltoes -3.646467832867139
393
root 0 0 0 -2.317172863136075 -3.3619432896983437 -4.4142839902029944
lowerback 10.478679152143455 1.221655557812984 3.150140800887532
upperback 0.4768685467987708 2.0883504716826433 1.7225898162358217
thorax -5.258804846519682 0.981348536746214 -0.25792784682354
lowerneck -17.14541890651413 -3.0585354064175903 -1.6754562652709355
upperneck 19.4503824334276 -3.874568536972639 0.4328522928317957
head 8.976520691972151 -1.8781601567448685 -0.07552440735075372
rclavicle -3.7353650982675055E-16 -3.5401377799575837E-16
rhumerus -30.348968194298642 -19.206233539748432 -78.30717953351406
rradius 25.511564096205685
rwrist 4.136439679701269
rhand -17.4743022386185 23.40488274945806
rfingers 7.125020000000037
rthumb 8.762028942291487 -6.430312887119641
lclavicle -6.32147930057561E-16 -1.9984323995728803E-16
lhumerus -30.553115927041077 -1.2369942498656314 82.30605232242482
lradius 31.78398849376164
lwrist 5.619746843485248
lhand -25.779445617220226 23.788104250400988
lfingers 7.124087951174942
lthumb 0.7474372518250032 53.47120941650478
rfemur -20.312827951092277 1.8442335160783756 21.92305978738668
rtibia 57.69407929828117
rfoot 0.7600941638702103 -5.45564049031276
rtoes 7.795083954757412
lfemur 3.380743666267806 -3.382004555128158 -26.162180671744807
ltibia 18.796509386948983
lfoot -15.94991043716357 0.6570405317893391
ltoes -3.7899944258522815
394
root 0 0 0 -2.355970472372818 -2.856090847619848 -3.9569415152808753
lowerback 10.48053803482986 0.9913554630086101 2.6425340743371244
upperback 0.4610775334263151 1.726441997209375 1.7490627257957252
thorax -5.280156628526103 0.8160370119305715 0.10500395149261939
lowerneck -17.250238244789557 -3.007478838535304 -1.671084951884775
upperneck 19.557926226148048 -3.7855421516563776 0.34089729780332867
head 9.026259061390437 -1.841421110612781 -0.09936446781093622
rclavicle -3.6637589984391894E-16 -3.589490765461822E-16
rhumerus -30.432831455467785 -19.28204313364631 -78.32348927055764
rradius 25.437355740791766
rwrist 4.120800252592824
rhand -17.46023233171988 23.463603099965816
rfingers 7.125020000000038
rthumb 8.774661054796823 -6.372909245933581
lclavicle -6.345259294717263E-16 -2.0332688335157275E-16
lhumerus -30.538616313453712 -1.253282952000042 82.30516768251877
lradius 31.814519196542555
lwrist 5.623296471991056
lhand -25.768871772795976 23.79406526591139
lfingers 7.124082265202873
lthumb 0.7580612849570283 53.47313784710127
rfemur -20.65915038224851 1.886063338237455 21.705944475757956
rtibia 57.49164850671543
rfoot 0.6875818666163713 -5.594260042697751
rtoes 7.584214943547784
lfemur 3.7006721486473655 -3.3503958185828755 -26.281146774126757
ltibia 18.961876074074482
lfoot -15.926617315819518 0.5056575284260028
ltoes -3.896899024892938
395
root 0 0 0 -2.407598748342833 -2.256053875386195 -3.3494840380970206
lowerback 10.479361348321932 0.6961818016725929 1.9702395380357194
upperback 0.44849255129479104 1.2594686473253967 1.7742437421932626
thorax -5.2978037675269904 0.6024434659187238 0.5734547824630133
lowerneck -17.34691682391147 -2.9429680797347393 -1.681831142978809
upperneck 19.66605563077991 -3.675235958669345 0.24891925778891189
head 9.075536410982417 -1.7961344129179755 -0.11811525157933289
rclavicle -3.6308371918837207E-16 -3.6215160822912834E-16
rhumerus -30.443114832327083 -19.288799178805974 -78.3248709818628
rradius 25.431968377162473
rwrist 4.119949312016752
rhand -17.458236080332025 23.46874990089175
rfingers 7.125020000000038
rthumb 8.776052758863889 -6.3680453910472465
lclavicle -6.393013113726145E-16 -2.0703436694331322E-16
lhumerus -30.48439622557531 -1.3117855266593175 82.30094830940986
lradius 31.92853639515034
lwrist 5.6346003270487195
lhand -25.733853112699766 23.814393302054174
lfingers 7.124056028027067
lthumb 0.7922966418014656 53.48132281114873
rfemur -20.907470067168873 1.9407127410938267 21.544931727136074
rtibia 57.22248974623974
rfoot 0.577350912017959 -5.717376780164522
rtoes 7.389818293812561
lfemur 3.8435133612385552 -3.3256560548128777 -26.317125114798124
ltibia 19.124895420022767
lfoot -15.899252882023841 0.4255240872282675
ltoes -3.9710607842936696
